nColumns=19
nRows=83
DataType=double
version=3
OpenSimVersion=4.1
endheader
time	ground_force_calcn_r_vx	ground_force_calcn_r_vy	ground_force_calcn_r_vz	ground_force_calcn_r_px	ground_force_calcn_r_py	ground_force_calcn_r_pz	ground_force_calcn_r_mx	ground_force_calcn_r_my	ground_force_calcn_r_mz	ground_force_calcn_l_vx	ground_force_calcn_l_vy	ground_force_calcn_l_vz	ground_force_calcn_l_px	ground_force_calcn_l_py	ground_force_calcn_l_pz	ground_force_calcn_l_mx	ground_force_calcn_l_my	ground_force_calcn_l_mz
1.42	-51.0827	82.8962	-1.44845	-0.121388	0	-0.443361	-0.207416	0.336591	-0.00588129	-60.7996	91.8747	10.0231	-0.0898608	0	-0.810532	0.120184	-0.181611	-0.0198129
1.43	-270.13	501.382	-27.7094	-0.13386	0	-0.434085	-0.614413	1.1404	-0.0630253	-256.086	437.413	56.0308	-0.110831	0	-0.818264	0.457477	-0.781403	-0.100095
1.44	-266.612	676.072	-72.3082	-0.142817	0	-0.431235	-0.858012	2.17574	-0.232703	-221.053	575.414	124.668	-0.135627	0	-0.818542	1.0403	-2.70797	-0.586703
1.45	-150.64	707.369	-85.2002	-0.167081	0	-0.432403	-0.23805	1.11782	-0.134638	-28.3386	857.237	121.413	-0.197703	0	-0.806767	-0.0158002	0.477953	0.0676939
1.46	-151.611	1026.85	-81.5833	-0.203672	0	-0.439348	0.452949	-3.06779	0.243736	27.7685	1288.58	81.5165	-0.223058	0	-0.798884	0.124409	5.7731	0.365211
1.47	-124.972	1287.27	-84.8954	-0.22305	0	-0.442981	0.698544	-7.19535	0.474532	-79.6114	1042.87	66.8463	-0.213523	0	-0.798488	-0.582562	7.63131	0.489153
1.48	-210.784	1118.2	-85.0017	-0.214073	0	-0.442968	1.35215	-7.17314	0.545276	-254.664	667.332	72.547	-0.174974	0	-0.802684	-1.86523	4.88773	0.531355
1.49	-278.399	862.282	-76.7879	-0.192054	0	-0.441803	1.75182	-5.42589	0.483187	-286.368	502.024	66.0926	-0.142982	0	-0.803488	-1.50004	2.62967	0.346202
1.5	-239.499	730.783	-76.1142	-0.178926	0	-0.440487	1.63723	-4.99568	0.520321	-230.398	466.332	54.3024	-0.138955	0	-0.801624	-1.40816	2.85015	0.331889
1.51	-190.072	704.56	-76.6022	-0.176461	0	-0.43989	1.62768	-6.03349	0.655982	-183.866	494.568	48.5584	-0.146344	0	-0.799953	-1.57668	4.241	0.416396
1.52	-180.636	710.175	-74.0677	-0.174951	0	-0.440056	1.84163	-7.24042	0.755139	-155.563	559.359	48.5805	-0.156659	0	-0.797796	-1.48652	5.34507	0.464222
1.53	-180.313	717.922	-77.3008	-0.174094	0	-0.440156	1.93224	-7.69329	0.828359	-124.343	636.437	62.7899	-0.16749	0	-0.796571	-1.07333	5.49374	0.542004
1.54	-159.737	723.396	-80.4855	-0.176088	0	-0.440412	1.78741	-8.09459	0.900609	-92.9371	688.47	75.1384	-0.175289	0	-0.795786	-0.755013	5.59307	0.610418
1.55	-126.865	724.656	-79.8535	-0.179883	0	-0.440963	1.50884	-8.61856	0.949722	-75.4732	679.246	71.8331	-0.17774	0	-0.794407	-0.669979	6.0297	0.637666
1.56	-101.79	710.102	-77.7454	-0.18231	0	-0.441444	1.24828	-8.70823	0.95342	-74.8456	618.627	61.637	-0.17522	0	-0.793044	-0.771492	6.37667	0.635341
1.57	-90.1402	675.918	-72.5548	-0.182235	0	-0.441708	1.15084	-8.62958	0.926322	-83.0322	549.695	52.7442	-0.170465	0	-0.792132	-0.989244	6.54906	0.628393
1.58	-86.0989	636.266	-64.3382	-0.18105	0	-0.441979	1.17689	-8.69716	0.879442	-92.7974	500.323	44.798	-0.166743	0	-0.791358	-1.25482	6.76546	0.605767
1.59	-81.2654	601.054	-56.6074	-0.180424	0	-0.442238	1.17631	-8.70023	0.819389	-92.9215	473.56	38.2146	-0.166367	0	-0.790216	-1.36908	6.97731	0.563044
1.6	-71.8804	568.175	-52.5277	-0.18072	0	-0.442326	1.06324	-8.40435	0.776981	-80.8059	461.547	34.7784	-0.169452	0	-0.788767	-1.24444	7.10797	0.535599
1.61	-59.1589	534.301	-50.2532	-0.181451	0	-0.442221	0.87708	-7.92146	0.745045	-63.6282	457.161	34.1387	-0.174152	0	-0.787401	-0.989882	7.11219	0.531105
1.62	-47.1201	503.115	-47.7909	-0.182541	0	-0.442085	0.694205	-7.41223	0.704088	-48.0727	454.437	34.5669	-0.178734	0	-0.786205	-0.740166	6.99687	0.532219
1.63	-37.1026	479.349	-45.8198	-0.184139	0	-0.441994	0.543163	-7.01743	0.670779	-36.2545	448.478	34.6208	-0.182224	0	-0.785283	-0.559066	6.9158	0.533873
1.64	-27.2159	460.345	-44.5346	-0.186185	0	-0.441794	0.399598	-6.75902	0.653881	-29.0476	437.755	34.7844	-0.184209	0	-0.784965	-0.455086	6.85827	0.544965
1.65	-17.6175	440.098	-43.508	-0.188175	0	-0.441558	0.26195	-6.54368	0.646908	-25.9589	423.345	35.4828	-0.184881	0	-0.785152	-0.411168	6.70544	0.562019
1.66	-10.1465	416.865	-42.2772	-0.189483	0	-0.441206	0.153226	-6.29524	0.638444	-23.6959	407.94	35.9252	-0.185036	0	-0.785461	-0.377285	6.4952	0.571999
1.67	-5.37877	392.043	-40.4579	-0.189639	0	-0.440706	0.0828063	-6.03551	0.62285	-19.945	394.104	35.5771	-0.185146	0	-0.785806	-0.319336	6.30994	0.569619
1.68	-2.09682	368.189	-38.1895	-0.188841	0	-0.440282	0.0328757	-5.77278	0.598768	-15.5712	382.486	34.72	-0.185167	0	-0.786228	-0.249608	6.13129	0.556565
1.69	0.656338	346.473	-35.7654	-0.187169	0	-0.440494	-0.0103939	-5.48683	0.566391	-11.8145	372.722	34.661	-0.18447	0	-0.786805	-0.185472	5.85126	0.544133
1.7	3.13976	325.595	-32.8982	-0.184825	0	-0.441227	-0.0507267	-5.26039	0.53151	-8.48177	363.655	35.9742	-0.182897	0	-0.787693	-0.126683	5.43154	0.537309
1.71	5.44149	305.213	-29.9034	-0.182107	0	-0.441833	-0.0894831	-5.01911	0.491749	-5.01452	354.565	37.3113	-0.180424	0	-0.788628	-0.069902	4.94261	0.520117
1.72	7.69857	287.06	-27.7466	-0.178755	0	-0.44232	-0.124903	-4.65731	0.450167	-1.49645	346.043	37.4835	-0.177299	0	-0.789314	-0.0194631	4.5007	0.487518
1.73	10.0349	271.946	-26.2035	-0.174809	0	-0.442864	-0.155825	-4.22289	0.406899	0.097641	339.322	36.6013	-0.173195	0	-0.789524	0.0012019	4.17686	0.450541
1.74	12.2406	259.003	-24.7298	-0.170481	0	-0.443604	-0.179369	-3.79532	0.36238	-1.0786	334.428	34.9072	-0.168512	0	-0.789755	-0.0131296	4.0709	0.424916
1.75	13.9034	247.406	-23.0264	-0.166127	0	-0.444599	-0.197401	-3.51268	0.32693	-2.47695	332.306	33.2467	-0.164299	0	-0.789978	-0.0304572	4.08611	0.408809
1.76	15.0715	238.169	-20.7986	-0.162066	0	-0.445837	-0.216179	-3.41619	0.298326	-2.78203	334.707	33.0399	-0.161317	0	-0.790234	-0.0349652	4.20668	0.415253
1.77	15.8945	232.708	-18.2043	-0.15871	0	-0.447078	-0.239266	-3.50304	0.274036	-1.87149	341.921	34.8556	-0.159194	0	-0.790831	-0.0236071	4.313	0.439671
1.78	16.1325	230.611	-15.5335	-0.155907	0	-0.448354	-0.25708	-3.67492	0.247536	0.275199	352.505	38.3132	-0.157937	0	-0.791673	0.00341281	4.3715	0.475131
1.79	15.5067	231.115	-13.3648	-0.153491	0	-0.44975	-0.260499	-3.88253	0.224516	2.79942	366.653	42.6306	-0.156706	0	-0.792651	0.0339143	4.44193	0.516461
1.8	13.6584	234.695	-12.247	-0.15069	0	-0.451174	-0.236399	-4.0621	0.21197	3.77555	383.922	47.2078	-0.154383	0	-0.793609	0.0443246	4.50721	0.554215
1.81	10.6396	241.365	-11.9305	-0.147347	0	-0.452389	-0.184501	-4.18552	0.206888	2.0619	399.984	50.7847	-0.150233	0	-0.793959	0.023792	4.61535	0.585997
1.82	7.19616	247.867	-11.4997	-0.143558	0	-0.453476	-0.124307	-4.28169	0.198647	-2.03725	412.605	52.1193	-0.14476	0	-0.793581	-0.0235616	4.77192	0.602778
1.83	3.04429	250.833	-10.6432	-0.139442	0	-0.454345	-0.0519264	-4.27845	0.181541	-7.44848	421.638	51.6372	-0.138645	0	-0.792693	-0.0863363	4.88725	0.598532
1.84	-1.2349	251.061	-9.38244	-0.135376	0	-0.45514	0.020635	-4.1952	0.15678	-13.5843	426.007	50.0789	-0.132191	0	-0.791244	-0.156467	4.90687	0.576824
1.85	-4.84074	252.114	-7.69157	-0.131722	0	-0.456098	0.0788275	-4.10548	0.125251	-18.8096	426.594	47.1361	-0.126287	0	-0.789507	-0.216621	4.91289	0.542845
1.86	-7.95072	257.334	-6.238	-0.128926	0	-0.456811	0.124693	-4.03584	0.0978323	-21.6905	425.935	43.3583	-0.121405	0	-0.787722	-0.253663	4.98116	0.50706
1.87	-11.344	267.955	-5.90526	-0.127081	0	-0.457183	0.167331	-3.9525	0.0871062	-22.2271	426.129	39.9433	-0.11765	0	-0.786052	-0.267164	5.12197	0.480108
1.88	-14.2611	281.723	-6.97455	-0.126032	0	-0.457643	0.195721	-3.86639	0.0957192	-21.3276	427.962	37.9108	-0.114933	0	-0.78464	-0.259891	5.21499	0.461968
1.89	-15.6733	297.189	-9.59782	-0.125751	0	-0.457745	0.196277	-3.72171	0.120194	-20.2507	430.888	37.5815	-0.112902	0	-0.783478	-0.245185	5.21697	0.455017
1.9	-15.7933	313.53	-13.6008	-0.126051	0	-0.457419	0.178144	-3.53654	0.153414	-19.9151	435.035	38.5754	-0.111523	0	-0.782543	-0.237711	5.19265	0.460442
1.91	-15.2477	330.167	-18.3635	-0.126912	0	-0.457192	0.151755	-3.28602	0.182764	-20.4645	441.521	40.0877	-0.110351	0	-0.781669	-0.240646	5.19192	0.471398
1.92	-15.0014	348.682	-23.867	-0.128226	0	-0.456838	0.130587	-3.03527	0.207762	-21.4926	451.169	41.5793	-0.109329	0	-0.781028	-0.250288	5.254	0.484204
1.93	-15.4118	369.339	-29.7646	-0.12951	0	-0.456563	0.12078	-2.89447	0.233262	-22.4548	463.649	42.7936	-0.108628	0	-0.780402	-0.261565	5.40083	0.498482
1.94	-14.7921	392.52	-35.0056	-0.130698	0	-0.456628	0.112687	-2.99023	0.266674	-23.5107	477.776	43.9799	-0.108179	0	-0.77959	-0.271667	5.52073	0.50819
1.95	-13.1498	417.757	-38.6531	-0.131778	0	-0.456999	0.106621	-3.38727	0.313408	-24.6533	492.052	46.0387	-0.107568	0	-0.778837	-0.275882	5.50628	0.515193
1.96	-10.8046	442.819	-40.431	-0.132763	0	-0.457496	0.0970368	-3.97697	0.363113	-25.2834	506.174	48.797	-0.1069	0	-0.778184	-0.272033	5.4461	0.525024
1.97	-7.16504	466.722	-41.4405	-0.133789	0	-0.45805	0.0700299	-4.56166	0.405032	-24.5025	521.058	52.0576	-0.106406	0	-0.777539	-0.253106	5.38242	0.537744
1.98	-2.07298	490.057	-44.1114	-0.134671	0	-0.458276	0.0207183	-4.89784	0.440868	-22.9187	538.016	55.7284	-0.106126	0	-0.777195	-0.226031	5.30607	0.54961
1.99	3.17821	511.582	-49.3023	-0.135193	0	-0.458293	-0.0303978	-4.89299	0.471549	-22.8799	556.461	59.19	-0.105732	0	-0.777064	-0.215805	5.24857	0.558283
2	6.07306	531.217	-56.092	-0.135564	0	-0.457874	-0.0540005	-4.72348	0.498759	-25.9358	574.954	62.0078	-0.105316	0	-0.777138	-0.239112	5.30073	0.571675
2.01	4.70138	549.73	-62.9395	-0.135913	0	-0.457595	-0.039785	-4.65203	0.532619	-31.9577	592.721	63.6766	-0.104763	0	-0.777118	-0.294076	5.45426	0.585956
2.02	-1.40201	569.58	-68.7305	-0.136277	0	-0.457464	0.0120215	-4.88384	0.589327	-39.0512	610.777	63.5504	-0.104373	0	-0.776922	-0.367177	5.74281	0.597531
2.03	-9.26683	593.22	-73.1839	-0.13683	0	-0.457334	0.0835459	-5.34823	0.659796	-44.9419	630.343	62.7043	-0.104342	0	-0.776743	-0.43523	6.10442	0.607246
2.04	-15.8409	620.905	-77.1611	-0.137542	0	-0.457073	0.149023	-5.84115	0.725892	-48.7652	650.848	62.5021	-0.104431	0	-0.7767	-0.47775	6.37632	0.612329
2.05	-20.3921	650.658	-81.5374	-0.138195	0	-0.456715	0.192872	-6.15404	0.771196	-51.3642	671.208	64.2423	-0.104521	0	-0.776963	-0.491196	6.41876	0.614349
2.06	-23.5758	679.763	-86.8732	-0.13874	0	-0.456109	0.214897	-6.19615	0.791863	-53.5755	689.333	68.2452	-0.104486	0	-0.777411	-0.479524	6.16984	0.610824
2.07	-27.4247	704.658	-91.7507	-0.139035	0	-0.455339	0.234507	-6.02547	0.784553	-56.508	703.531	72.8192	-0.104359	0	-0.777966	-0.461753	5.74887	0.595038
2.08	-33.6555	720.337	-93.4134	-0.13899	0	-0.454756	0.272866	-5.84022	0.75736	-60.3578	712.42	76.1434	-0.104058	0	-0.77859	-0.450434	5.3166	0.568237
2.09	-42.0083	725.087	-90.9905	-0.138597	0	-0.454235	0.333521	-5.75676	0.72241	-64.8546	714.563	76.9025	-0.103648	0	-0.779051	-0.453902	5.00105	0.538222
2.1	-51.6408	718.575	-85.0535	-0.137941	0	-0.453829	0.40785	-5.67519	0.671739	-70.57	709.99	75.3113	-0.103185	0	-0.779363	-0.477685	4.80589	0.509779
2.11	-61.3657	701.993	-76.7862	-0.137147	0	-0.453428	0.470729	-5.3849	0.589018	-76.8808	697.67	72.2013	-0.102687	0	-0.779696	-0.503803	4.57186	0.473138
2.12	-67.9685	672.71	-66.7746	-0.136103	0	-0.452821	0.473747	-4.68885	0.465425	-81.7641	675.006	68.3478	-0.10193	0	-0.780139	-0.504434	4.16437	0.421664
2.13	-68.0999	623.429	-55.4767	-0.134626	0	-0.451821	0.402488	-3.68463	0.327882	-84.1982	638.095	64.353	-0.100809	0	-0.780812	-0.473344	3.58723	0.361778
2.14	-59.6727	544.836	-43.4339	-0.132557	0	-0.450342	0.293358	-2.67847	0.213526	-83.0837	582.169	59.0184	-0.0991292	0	-0.781894	-0.410965	2.87964	0.291929
2.15	-39.7652	422.204	-27.9401	-0.129143	0	-0.448244	0.185205	-1.9664	0.13013	-77.1534	503.231	49.4292	-0.0965413	0	-0.783109	-0.333984	2.1784	0.21397
2.16	-8.99374	253.959	-9.64343	-0.123612	0	-0.446254	0.0540839	-1.52718	0.0579908	-64.6017	402.181	33.5435	-0.09246	0	-0.784126	-0.267826	1.66737	0.139065
2.17	16.8022	88.871	1.67909	-0.114831	0	-0.448813	-0.1651	-0.873258	-0.016499	-42.784	280.579	13.3984	-0.086603	0	-0.784469	-0.215878	1.41573	0.0676054
2.18	0	0	0	0	0	0	0	0	0	-13.0733	146.373	-4.06846	-0.0777814	0	-0.782472	-0.0986478	1.1045	-0.0306996
2.19	0	0	0	0	0	0	0	0	0	5.60076	38.7315	-9.10499	-0.0436927	0	-0.76308	0.126748	0.876514	-0.206051
2.2	0	0	0	0	0	0	0	0	0	0	0	0	0	0	0	0	0	0
2.21	0	0	0	0	0	0	0	0	0	0	0	0	0	0	0	0	0	0
2.22	0	0	0	0	0	0	0	0	0	0	0	0	0	0	0	0	0	0
2.23	0	0	0	0	0	0	0	0	0	0	0	0	0	0	0	0	0	0
2.24	0	0	0	0	0	0	0	0	0	0	0	0	0	0	0	0	0	0
